<svg xmlns="http://www.w3.org/2000/svg" xmlns:xlink="http://www.w3.org/1999/xlink" contentStyleType="text/css" data-diagram-type="CLASS" height="464.8px" preserveAspectRatio="none" style="width:864px;height:464px;background:#FFFFFF;" version="1.1" viewBox="0 0 864 464" width="864px" zoomAndPan="magnify"><?plantuml 1.2026.6?><defs/><g><!--class Usuario--><g class="entity" data-qualified-name="Usuario" data-source-line="8" id="ent0001"><rect fill="#F1F1F1" height="98.0734" rx="2" ry="2" style="stroke:#181818;stroke-width:0.4;" width="125.3898" x="62.4" y="9.6"/><text fill="#000000" font-family="sans-serif" font-size="11.2" lengthAdjust="spacing" textLength="38.593" x="105.7984" y="24.1055">Usuario</text><line style="stroke:#181818;stroke-width:0.4;" x1="63.2" x2="186.9898" y1="30.4789" y2="30.4789"/><g data-visibility-modifier="IE_MANDATORY"><ellipse cx="71.2" cy="41.3184" fill="#000000" rx="2.4" ry="2.4" style="stroke:#000000;stroke-width:0.8;"/></g><text fill="#000000" font-family="sans-serif" font-size="11.2" lengthAdjust="spacing" textLength="100.2313" x="78.4" y="44.1844">userId : String &#171;PK&#187;</text><line style="stroke:#181818;stroke-width:0.8;" x1="63.2" x2="186.9898" y1="49.7578" y2="49.7578"/><text fill="#000000" font-family="sans-serif" font-size="11.2" lengthAdjust="spacing" textLength="65.357" x="67.2" y="63.4633">email : String</text><text fill="#000000" font-family="sans-serif" font-size="11.2" lengthAdjust="spacing" textLength="103.332" x="67.2" y="76.3422">displayName : String</text><text fill="#000000" font-family="sans-serif" font-size="11.2" lengthAdjust="spacing" textLength="112.6617" x="67.2" y="89.2211">createdAt : Timestamp</text><text fill="#000000" font-family="sans-serif" font-size="11.2" lengthAdjust="spacing" textLength="115.7898" x="67.2" y="102.1">updatedAt : Timestamp</text></g><!--class Hogar--><g class="entity" data-qualified-name="Hogar" data-source-line="17" id="ent0002"><rect fill="#F1F1F1" height="98.0734" rx="2" ry="2" style="stroke:#181818;stroke-width:0.4;" width="150.9344" x="505.6" y="9.6"/><text fill="#000000" font-family="sans-serif" font-size="11.2" lengthAdjust="spacing" textLength="30.5047" x="565.8148" y="24.1055">Hogar</text><line style="stroke:#181818;stroke-width:0.4;" x1="506.4" x2="655.7344" y1="30.4789" y2="30.4789"/><g data-visibility-modifier="IE_MANDATORY"><ellipse cx="514.4" cy="41.3184" fill="#000000" rx="2.4" ry="2.4" style="stroke:#000000;stroke-width:0.8;"/></g><text fill="#000000" font-family="sans-serif" font-size="11.2" lengthAdjust="spacing" textLength="130.1344" x="521.6" y="44.1844">householdId : String &#171;PK&#187;</text><line style="stroke:#181818;stroke-width:0.8;" x1="506.4" x2="655.7344" y1="49.7578" y2="49.7578"/><text fill="#000000" font-family="sans-serif" font-size="11.2" lengthAdjust="spacing" textLength="66.6094" x="510.4" y="63.4633">name : String</text><text fill="#000000" font-family="sans-serif" font-size="11.2" lengthAdjust="spacing" textLength="108.3195" x="510.4" y="76.3422">ownerId : String &#171;FK&#187;</text><text fill="#000000" font-family="sans-serif" font-size="11.2" lengthAdjust="spacing" textLength="112.6617" x="510.4" y="89.2211">createdAt : Timestamp</text><text fill="#000000" font-family="sans-serif" font-size="11.2" lengthAdjust="spacing" textLength="115.7898" x="510.4" y="102.1">updatedAt : Timestamp</text></g><!--class Miembro--><g class="entity" data-qualified-name="Miembro" data-source-line="26" id="ent0003"><rect fill="#F1F1F1" height="110.9523" rx="2" ry="2" style="stroke:#181818;stroke-width:0.4;" width="168.3578" x="172.4" y="157.6"/><text fill="#000000" font-family="sans-serif" font-size="11.2" lengthAdjust="spacing" textLength="43.5641" x="234.7969" y="172.1055">Miembro</text><line style="stroke:#181818;stroke-width:0.4;" x1="173.2" x2="339.9578" y1="178.4789" y2="178.4789"/><g data-visibility-modifier="IE_MANDATORY"><ellipse cx="181.2" cy="189.3184" fill="#000000" rx="2.4" ry="2.4" style="stroke:#000000;stroke-width:0.8;"/></g><text fill="#000000" font-family="sans-serif" font-size="11.2" lengthAdjust="spacing" textLength="147.5578" x="188.4" y="192.1844">householdId : String &#171;PK,FK&#187;</text><g data-visibility-modifier="IE_MANDATORY"><ellipse cx="181.2" cy="202.1973" fill="#000000" rx="2.4" ry="2.4" style="stroke:#000000;stroke-width:0.8;"/></g><text fill="#000000" font-family="sans-serif" font-size="11.2" lengthAdjust="spacing" textLength="117.6547" x="188.4" y="205.0633">userId : String &#171;PK,FK&#187;</text><line style="stroke:#181818;stroke-width:0.8;" x1="173.2" x2="339.9578" y1="210.6367" y2="210.6367"/><text fill="#000000" font-family="sans-serif" font-size="11.2" lengthAdjust="spacing" textLength="108.7242" x="177.2" y="224.3422">role : owner | member</text><text fill="#000000" font-family="sans-serif" font-size="11.2" lengthAdjust="spacing" textLength="103.332" x="177.2" y="237.2211">displayName : String</text><text fill="#000000" font-family="sans-serif" font-size="11.2" lengthAdjust="spacing" textLength="65.357" x="177.2" y="250.1">email : String</text><text fill="#000000" font-family="sans-serif" font-size="11.2" lengthAdjust="spacing" textLength="105.1969" x="177.2" y="262.9789">joinedAt : Timestamp</text></g><!--class Producto--><g class="entity" data-qualified-name="Producto" data-source-line="36" id="ent0004"><rect fill="#F1F1F1" height="136.7102" rx="2" ry="2" style="stroke:#181818;stroke-width:0.4;" width="152.7719" x="504.8" y="318.4"/><text fill="#000000" font-family="sans-serif" font-size="11.2" lengthAdjust="spacing" textLength="44.8273" x="558.7723" y="332.9055">Producto</text><line style="stroke:#181818;stroke-width:0.4;" x1="505.6" x2="656.7719" y1="339.2789" y2="339.2789"/><g data-visibility-modifier="IE_MANDATORY"><ellipse cx="513.6" cy="350.1184" fill="#000000" rx="2.4" ry="2.4" style="stroke:#000000;stroke-width:0.8;"/></g><text fill="#000000" font-family="sans-serif" font-size="11.2" lengthAdjust="spacing" textLength="115.8008" x="520.8" y="352.9844">productId : String &#171;PK&#187;</text><line style="stroke:#181818;stroke-width:0.8;" x1="505.6" x2="656.7719" y1="358.5578" y2="358.5578"/><text fill="#000000" font-family="sans-serif" font-size="11.2" lengthAdjust="spacing" textLength="129.5055" x="509.6" y="372.2633">householdId : String &#171;FK&#187;</text><text fill="#000000" font-family="sans-serif" font-size="11.2" lengthAdjust="spacing" textLength="66.6094" x="509.6" y="385.1422">name : String</text><text fill="#000000" font-family="sans-serif" font-size="11.2" lengthAdjust="spacing" textLength="94.6258" x="509.6" y="398.0211">quantity : Number?</text><text fill="#000000" font-family="sans-serif" font-size="11.2" lengthAdjust="spacing" textLength="62.8797" x="509.6" y="410.9">unit : String?</text><text fill="#000000" font-family="sans-serif" font-size="11.2" lengthAdjust="spacing" textLength="97.1195" x="509.6" y="423.7789">categoryId : String?</text><text fill="#000000" font-family="sans-serif" font-size="11.2" lengthAdjust="spacing" textLength="92.7664" x="509.6" y="436.6578">locationId : String?</text><text fill="#000000" font-family="sans-serif" font-size="11.2" lengthAdjust="spacing" textLength="143.1719" x="509.6" y="449.5367">expirationDate : Timestamp?</text></g><!--class Categoria--><g class="entity" data-qualified-name="Categoria" data-source-line="48" id="ent0005"><rect fill="#F1F1F1" height="85.1945" rx="2" ry="2" style="stroke:#181818;stroke-width:0.4;" width="142.2008" x="354.8" y="170.8"/><text fill="#000000" font-family="sans-serif" font-size="11.2" lengthAdjust="spacing" textLength="48.5625" x="401.6191" y="185.3055">Categoria</text><line style="stroke:#181818;stroke-width:0.4;" x1="355.6" x2="496.2008" y1="191.6789" y2="191.6789"/><g data-visibility-modifier="IE_MANDATORY"><ellipse cx="363.6" cy="202.5184" fill="#000000" rx="2.4" ry="2.4" style="stroke:#000000;stroke-width:0.8;"/></g><text fill="#000000" font-family="sans-serif" font-size="11.2" lengthAdjust="spacing" textLength="121.4008" x="370.8" y="205.3844">categoryId : String &#171;PK&#187;</text><line style="stroke:#181818;stroke-width:0.8;" x1="355.6" x2="496.2008" y1="210.9578" y2="210.9578"/><text fill="#000000" font-family="sans-serif" font-size="11.2" lengthAdjust="spacing" textLength="129.5055" x="359.6" y="224.6633">householdId : String &#171;FK&#187;</text><text fill="#000000" font-family="sans-serif" font-size="11.2" lengthAdjust="spacing" textLength="66.6094" x="359.6" y="237.5422">name : String</text><text fill="#000000" font-family="sans-serif" font-size="11.2" lengthAdjust="spacing" textLength="69.0977" x="359.6" y="250.4211">color : String?</text></g><!--class Ubicacion--><g class="entity" data-qualified-name="Ubicacion" data-source-line="56" id="ent0006"><rect fill="#F1F1F1" height="72.3156" rx="2" ry="2" style="stroke:#181818;stroke-width:0.4;" width="139.1055" x="511.6" y="177.2"/><text fill="#000000" font-family="sans-serif" font-size="11.2" lengthAdjust="spacing" textLength="49.1805" x="556.5625" y="191.7055">Ubicacion</text><line style="stroke:#181818;stroke-width:0.4;" x1="512.4" x2="649.9055" y1="198.0789" y2="198.0789"/><g data-visibility-modifier="IE_MANDATORY"><ellipse cx="520.4" cy="208.9184" fill="#000000" rx="2.4" ry="2.4" style="stroke:#000000;stroke-width:0.8;"/></g><text fill="#000000" font-family="sans-serif" font-size="11.2" lengthAdjust="spacing" textLength="117.0477" x="527.6" y="211.7844">locationId : String &#171;PK&#187;</text><line style="stroke:#181818;stroke-width:0.8;" x1="512.4" x2="649.9055" y1="217.3578" y2="217.3578"/><text fill="#000000" font-family="sans-serif" font-size="11.2" lengthAdjust="spacing" textLength="129.5055" x="516.4" y="231.0633">householdId : String &#171;FK&#187;</text><text fill="#000000" font-family="sans-serif" font-size="11.2" lengthAdjust="spacing" textLength="66.6094" x="516.4" y="243.9422">name : String</text></g><!--class ElementoCesta--><g class="entity" data-qualified-name="ElementoCesta" data-source-line="63" id="ent0007"><rect fill="#F1F1F1" height="123.8313" rx="2" ry="2" style="stroke:#181818;stroke-width:0.4;" width="139.1055" x="665.2" y="151.2"/><text fill="#000000" font-family="sans-serif" font-size="11.2" lengthAdjust="spacing" textLength="76.5734" x="696.466" y="165.7055">ElementoCesta</text><line style="stroke:#181818;stroke-width:0.4;" x1="666" x2="803.5055" y1="172.0789" y2="172.0789"/><g data-visibility-modifier="IE_MANDATORY"><ellipse cx="674" cy="182.9184" fill="#000000" rx="2.4" ry="2.4" style="stroke:#000000;stroke-width:0.8;"/></g><text fill="#000000" font-family="sans-serif" font-size="11.2" lengthAdjust="spacing" textLength="99.6023" x="681.2" y="185.7844">itemId : String &#171;PK&#187;</text><line style="stroke:#181818;stroke-width:0.8;" x1="666" x2="803.5055" y1="191.3578" y2="191.3578"/><text fill="#000000" font-family="sans-serif" font-size="11.2" lengthAdjust="spacing" textLength="129.5055" x="670" y="205.0633">householdId : String &#171;FK&#187;</text><text fill="#000000" font-family="sans-serif" font-size="11.2" lengthAdjust="spacing" textLength="66.6094" x="670" y="217.9422">name : String</text><text fill="#000000" font-family="sans-serif" font-size="11.2" lengthAdjust="spacing" textLength="88.3969" x="670" y="230.8211">quantity : Number</text><text fill="#000000" font-family="sans-serif" font-size="11.2" lengthAdjust="spacing" textLength="56.6508" x="670" y="243.7">unit : String</text><text fill="#000000" font-family="sans-serif" font-size="11.2" lengthAdjust="spacing" textLength="102.7414" x="670" y="256.5789">purchased : Boolean</text><text fill="#000000" font-family="sans-serif" font-size="11.2" lengthAdjust="spacing" textLength="126.3773" x="670" y="269.4578">sourceProductId : String?</text></g><!--class Notificacion--><g class="entity" data-qualified-name="Notificacion" data-source-line="74" id="ent0008"><rect fill="#F1F1F1" height="123.8313" rx="2" ry="2" style="stroke:#181818;stroke-width:0.4;" width="152.7883" x="4.8" y="151.2"/><text fill="#000000" font-family="sans-serif" font-size="11.2" lengthAdjust="spacing" textLength="57.8922" x="52.248" y="165.7055">Notificacion</text><line style="stroke:#181818;stroke-width:0.4;" x1="5.6" x2="156.7883" y1="172.0789" y2="172.0789"/><g data-visibility-modifier="IE_MANDATORY"><ellipse cx="13.6" cy="182.9184" fill="#000000" rx="2.4" ry="2.4" style="stroke:#000000;stroke-width:0.8;"/></g><text fill="#000000" font-family="sans-serif" font-size="11.2" lengthAdjust="spacing" textLength="131.9883" x="20.8" y="185.7844">notificationId : String &#171;PK&#187;</text><line style="stroke:#181818;stroke-width:0.8;" x1="5.6" x2="156.7883" y1="191.3578" y2="191.3578"/><text fill="#000000" font-family="sans-serif" font-size="11.2" lengthAdjust="spacing" textLength="99.6023" x="9.6" y="205.0633">userId : String &#171;FK&#187;</text><text fill="#000000" font-family="sans-serif" font-size="11.2" lengthAdjust="spacing" textLength="105.8531" x="9.6" y="217.9422">householdId : String?</text><text fill="#000000" font-family="sans-serif" font-size="11.2" lengthAdjust="spacing" textLength="59.7625" x="9.6" y="230.8211">type : String</text><text fill="#000000" font-family="sans-serif" font-size="11.2" lengthAdjust="spacing" textLength="56.0219" x="9.6" y="243.7">title : String</text><text fill="#000000" font-family="sans-serif" font-size="11.2" lengthAdjust="spacing" textLength="84.0383" x="9.6" y="256.5789">message : String</text><text fill="#000000" font-family="sans-serif" font-size="11.2" lengthAdjust="spacing" textLength="72.8547" x="9.6" y="269.4578">read : Boolean</text></g><g class="link" data-entity-1="ent0001" data-entity-2="ent0003" data-link-type="crowfoot" id="lnk9"><line style="stroke:#181818;stroke-width:0.8;" x1="166.5496" x2="171.4052" y1="112.6693" y2="108.5"/><line style="stroke:#181818;stroke-width:0.8;" x1="168.113" x2="172.9687" y1="114.4901" y2="110.3209"/><line style="stroke:#181818;stroke-width:0.8;" x1="171.062" x2="166.8928" y1="113.0125" y2="108.1568"/><line style="stroke:#181818;stroke-width:0.8;" x1="205.17" x2="212.981" y1="152.7358" y2="154.4645"/><line style="stroke:#181818;stroke-width:0.8;" x1="205.17" x2="205.6975" y1="152.7358" y2="160.7184"/><line style="stroke:#181818;stroke-width:0.8;" x1="205.17" x2="209.3393" y1="152.7358" y2="157.5915"/><ellipse cx="202.0431" cy="149.0941" fill="none" rx="3.2" ry="3.2" style="stroke:#181818;stroke-width:0.8;"/><path d="M171.062,113.0125 C184.5681,128.7421 186.0904,130.515 199.9585,146.6662" fill="none" style="stroke:#181818;stroke-width:0.8;"/><text fill="#000000" font-family="sans-serif" font-size="10.4" lengthAdjust="spacing" textLength="46.2566" x="192.4" y="133.7551">pertenece</text></g><g class="link" data-entity-1="ent0002" data-entity-2="ent0003" data-link-type="crowfoot" id="lnk10"><line style="stroke:#181818;stroke-width:0.8;" x1="501.3781" x2="503.5153" y1="82.6256" y2="88.6582"/><line style="stroke:#181818;stroke-width:0.8;" x1="499.1159" x2="501.2531" y1="83.427" y2="89.4596"/><line style="stroke:#181818;stroke-width:0.8;" x1="499.4304" x2="505.463" y1="86.7105" y2="84.5733"/><line style="stroke:#181818;stroke-width:0.8;" x1="341.6773" x2="338.5107" y1="154.3204" y2="161.667"/><line style="stroke:#181818;stroke-width:0.8;" x1="341.6773" x2="333.7379" y1="154.3204" y2="153.3375"/><line style="stroke:#181818;stroke-width:0.8;" x1="341.6773" x2="336.1243" y1="154.3204" y2="157.5023"/><line style="stroke:#181818;stroke-width:0.8;" x1="344.6565" x2="341.4746" y1="156.3015" y2="150.7485"/><path d="M499.4304,86.7105 C452.7943,103.2325 398.4445,124.5768 347.6,151.2 C343.7992,153.1902 345.5151,152.1214 341.6773,154.3204" fill="none" style="stroke:#181818;stroke-width:0.8;"/><text fill="#000000" font-family="sans-serif" font-size="10.4" lengthAdjust="spacing" textLength="39.3199" x="405.2" y="133.7551">contiene</text></g><g class="link" data-entity-1="ent0002" data-entity-2="ent0004" data-link-type="crowfoot" id="lnk11"><line style="stroke:#181818;stroke-width:0.8;" x1="659.4213" x2="660.6207" y1="71.5155" y2="65.2289"/><line style="stroke:#181818;stroke-width:0.8;" x1="661.7787" x2="662.9782" y1="71.9652" y2="65.6786"/><line style="stroke:#181818;stroke-width:0.8;" x1="663.1643" x2="656.8777" y1="68.9719" y2="67.7724"/><line style="stroke:#181818;stroke-width:0.8;" x1="663.7905" x2="658.8867" y1="369.7039" y2="376.0248"/><line style="stroke:#181818;stroke-width:0.8;" x1="663.7905" x2="656.3494" y1="369.7039" y2="366.7662"/><line style="stroke:#181818;stroke-width:0.8;" x1="663.7905" x2="657.6181" y1="369.7039" y2="371.3955"/><ellipse cx="668.4198" cy="368.4353" fill="none" rx="3.2" ry="3.2" style="stroke:#181818;stroke-width:0.8;"/><path d="M663.1643,68.9719 C716.1938,79.0894 777.2185,100.5319 811.6,151.2 C842.5447,196.8033 840.9336,228.5441 811.6,275.2 C778.0532,328.5571 724.7213,353.0059 671.506,367.5895" fill="none" style="stroke:#181818;stroke-width:0.8;"/><text fill="#000000" font-family="sans-serif" font-size="10.4" lengthAdjust="spacing" textLength="28.3359" x="835.6" y="217.3551">posee</text></g><g class="link" data-entity-1="ent0002" data-entity-2="ent0005" data-link-type="crowfoot" id="lnk12"><line style="stroke:#181818;stroke-width:0.8;" x1="527.3552" x2="531.8452" y1="108.1216" y2="112.6822"/><line style="stroke:#181818;stroke-width:0.8;" x1="525.6449" x2="530.135" y1="109.8053" y2="114.366"/><line style="stroke:#181818;stroke-width:0.8;" x1="527.3199" x2="531.8805" y1="112.6469" y2="108.1568"/><line style="stroke:#181818;stroke-width:0.8;" x1="472.9593" x2="471.7662" y1="166.1669" y2="174.0774"/><line style="stroke:#181818;stroke-width:0.8;" x1="472.9593" x2="465.0311" y1="166.1669" y2="167.2365"/><line style="stroke:#181818;stroke-width:0.8;" x1="472.9593" x2="468.3987" y1="166.1669" y2="170.657"/><ellipse cx="476.3797" cy="162.7993" fill="none" rx="3.2" ry="3.2" style="stroke:#181818;stroke-width:0.8;"/><path d="M527.3199,112.6469 C506.9052,132.7459 498.2874,141.2304 478.66,160.5543" fill="none" style="stroke:#181818;stroke-width:0.8;"/><text fill="#000000" font-family="sans-serif" font-size="10.4" lengthAdjust="spacing" textLength="28.3359" x="514.8" y="133.7551">define</text></g><g class="link" data-entity-1="ent0002" data-entity-2="ent0006" data-link-type="crowfoot" id="lnk13"><line style="stroke:#181818;stroke-width:0.8;" x1="578" x2="584.4" y1="111.3568" y2="111.3568"/><line style="stroke:#181818;stroke-width:0.8;" x1="578" x2="584.4" y1="113.7568" y2="113.7568"/><line style="stroke:#181818;stroke-width:0.8;" x1="581.2" x2="581.2" y1="114.5568" y2="108.1568"/><line style="stroke:#181818;stroke-width:0.8;" x1="581.2" x2="586" y1="170.6567" y2="177.0567"/><line style="stroke:#181818;stroke-width:0.8;" x1="581.2" x2="576.4" y1="170.6567" y2="177.0567"/><line style="stroke:#181818;stroke-width:0.8;" x1="581.2" x2="581.2" y1="170.6567" y2="177.0567"/><ellipse cx="581.2" cy="165.8567" fill="none" rx="3.2" ry="3.2" style="stroke:#181818;stroke-width:0.8;"/><path d="M581.2,114.5568 C581.2,136.9279 581.2,142.1886 581.2,162.6567" fill="none" style="stroke:#181818;stroke-width:0.8;"/><text fill="#000000" font-family="sans-serif" font-size="10.4" lengthAdjust="spacing" textLength="28.3359" x="582.8" y="133.7551">define</text></g><g class="link" data-entity-1="ent0002" data-entity-2="ent0007" data-link-type="crowfoot" id="lnk14"><line style="stroke:#181818;stroke-width:0.8;" x1="630.0229" x2="634.5365" y1="112.6823" y2="108.145"/><line style="stroke:#181818;stroke-width:0.8;" x1="631.7243" x2="636.238" y1="114.3749" y2="109.8376"/><line style="stroke:#181818;stroke-width:0.8;" x1="634.5483" x2="630.011" y1="112.6705" y2="108.1568"/><line style="stroke:#181818;stroke-width:0.8;" x1="668.6054" x2="676.5279" y1="146.5502" y2="147.6609"/><line style="stroke:#181818;stroke-width:0.8;" x1="668.6054" x2="669.7575" y1="146.5502" y2="154.4668"/><line style="stroke:#181818;stroke-width:0.8;" x1="668.6054" x2="673.1427" y1="146.5502" y2="151.0638"/><ellipse cx="665.2024" cy="143.1649" fill="none" rx="3.2" ry="3.2" style="stroke:#181818;stroke-width:0.8;"/><path d="M634.5483,112.6705 C648.252,126.3028 648.5869,126.6359 662.9338,140.9081" fill="none" style="stroke:#181818;stroke-width:0.8;"/><text fill="#000000" font-family="sans-serif" font-size="10.4" lengthAdjust="spacing" textLength="43.352" x="659.6" y="133.7551">comparte</text></g><g class="link" data-entity-1="ent0005" data-entity-2="ent0004" data-link-type="crowfoot" id="lnk15"><line style="stroke:#181818;stroke-width:0.8;" x1="469.4649" x2="463.5696" y1="262.1698" y2="255.6364"/><ellipse cx="469.4649" cy="262.1698" fill="none" rx="3.2" ry="3.2" style="stroke:#181818;stroke-width:0.8;"/><line style="stroke:#181818;stroke-width:0.8;" x1="463.3375" x2="468.0891" y1="260.1559" y2="255.8685"/><line style="stroke:#181818;stroke-width:0.8;" x1="515.7788" x2="523.6299" y1="313.4971" y2="315.0331"/><line style="stroke:#181818;stroke-width:0.8;" x1="515.7788" x2="516.5025" y1="313.4971" y2="321.4643"/><line style="stroke:#181818;stroke-width:0.8;" x1="515.7788" x2="520.0662" y1="313.4971" y2="318.2487"/><ellipse cx="512.5632" cy="309.9334" fill="none" rx="3.2" ry="3.2" style="stroke:#181818;stroke-width:0.8;"/><path d="M471.6086,264.5456 C488.5639,283.3363 491.3445,286.4179 510.4194,307.5576" fill="none" style="stroke:#181818;stroke-width:0.8;"/><text fill="#000000" font-family="sans-serif" font-size="10.4" lengthAdjust="spacing" textLength="36.9891" x="505.2" y="300.9551">clasifica</text></g><g class="link" data-entity-1="ent0006" data-entity-2="ent0004" data-link-type="crowfoot" id="lnk16"><line style="stroke:#181818;stroke-width:0.8;" x1="581.2" x2="581.2" y1="258.0218" y2="249.2218"/><ellipse cx="581.2" cy="258.0218" fill="none" rx="3.2" ry="3.2" style="stroke:#181818;stroke-width:0.8;"/><line style="stroke:#181818;stroke-width:0.8;" x1="578" x2="584.4" y1="252.4218" y2="252.4218"/><line style="stroke:#181818;stroke-width:0.8;" x1="581.2" x2="586" y1="311.7272" y2="318.1272"/><line style="stroke:#181818;stroke-width:0.8;" x1="581.2" x2="576.4" y1="311.7272" y2="318.1272"/><line style="stroke:#181818;stroke-width:0.8;" x1="581.2" x2="581.2" y1="311.7272" y2="318.1272"/><ellipse cx="581.2" cy="306.9272" fill="none" rx="3.2" ry="3.2" style="stroke:#181818;stroke-width:0.8;"/><path d="M581.2,261.2218 C581.2,281.075 581.2,280.1529 581.2,303.7272" fill="none" style="stroke:#181818;stroke-width:0.8;"/><text fill="#000000" font-family="sans-serif" font-size="10.4" lengthAdjust="spacing" textLength="45.0938" x="582.8" y="300.9551">almacena</text></g><g class="link" data-entity-1="ent0001" data-entity-2="ent0008" data-link-type="crowfoot" id="lnk17"><line style="stroke:#181818;stroke-width:0.8;" x1="107.2571" x2="113.4072" y1="110.3464" y2="112.1174"/><line style="stroke:#181818;stroke-width:0.8;" x1="106.593" x2="112.7431" y1="112.6527" y2="114.4236"/><line style="stroke:#181818;stroke-width:0.8;" x1="109.4467" x2="111.2177" y1="114.3069" y2="108.1568"/><line style="stroke:#181818;stroke-width:0.8;" x1="100.6332" x2="103.4748" y1="144.9137" y2="152.392"/><line style="stroke:#181818;stroke-width:0.8;" x1="100.6332" x2="94.2497" y1="144.9137" y2="149.7356"/><line style="stroke:#181818;stroke-width:0.8;" x1="100.6332" x2="98.8623" y1="144.9137" y2="151.0638"/><ellipse cx="101.9614" cy="140.3012" fill="none" rx="3.2" ry="3.2" style="stroke:#181818;stroke-width:0.8;"/><path d="M109.4467,114.3069 C105.5212,127.9393 106.9567,122.9539 102.8469,137.2261" fill="none" style="stroke:#181818;stroke-width:0.8;"/><text fill="#000000" font-family="sans-serif" font-size="10.4" lengthAdjust="spacing" textLength="28.3258" x="107.6" y="133.7551">recibe</text></g><g class="footer" data-source-line="6"><text fill="#888888" font-family="sans-serif" font-size="8" lengthAdjust="spacing" textLength="97.3984" x="357.1008" y="457.9039">Modelo de datos Despensa</text></g><?plantuml-src jLN1Rjim3BtxAxZhi0mx3a7HOcixR1WQ1DZw0OpCnDeaKPDaT46pVn-LEB7YE1smefSWVgJv7fye-fKFkB881jVS9eYM4Zgiea93yExj-whHDO7IGHcgua_jF0Qq41ki-K6x5IpHn39YjAEqzWGSKiFLaZbHW3kkoJ18gHeJHxYXwCb5h2foIQSrtCSMWsPuh01UGnifVAbX2jzIo2GN5_ElbvSIcapaXongSmWAKElefO4PMYfX5GWJrH-IWD-rfPZGUi5RNu_WVmvQFlCAGwUaOT7IiAdFot43MdvmG_MVTkd_A-XEarq4_fUaDntDk7_xw5PpO9CrRwN21gpKft3UoHF7Vx0Sytd1yy1rgz9UiTyzdhVmJ4kTug71lrhSqKnXrcRXLzb3fzCXAGDAB5rnM1SbCsnO0fhT0ARVNeTju4RUAzkwAlgwtjNKs3Ksml6ipXGR3eMkdlb-eHKgaTSnZxJn3EQUvzQGbRzydPllk7GY-s9dDpmwUVPjK0r6olK-iamgEa4Z2qppar4gNPfnqijZerm7FMtMwONfz8zrb-Tbk-8ApK9lZW2PdeYh8qXkVzcIoDvllSrcCk77mpsVWgUGo96YQhUCSiAcJ50i7Kj64PS2Xtid5JZI8DfFxrGsyL8Ft-vdR3n-F1jPWvMTdwZg2szug4CPZDi3gFhofrbeB2gI3y_0aQC3dOg3IY_eBm00?></g></svg>